<svg xmlns="http://www.w3.org/2000/svg" xmlns:xlink="http://www.w3.org/1999/xlink" width="436" zoomAndPan="magnify" viewBox="0 0 327 242.249991" height="323" preserveAspectRatio="xMidYMid meet" version="1.0"><defs><clipPath id="704a50d1ef"><path d="M 0.503906 0 L 326.496094 0 L 326.496094 241.503906 L 0.503906 241.503906 Z M 0.503906 0 " clip-rule="nonzero"/></clipPath><clipPath id="674e56e1ca"><path d="M 75.433594 114 L 251.886719 114 L 251.886719 163 L 75.433594 163 Z M 75.433594 114 " clip-rule="nonzero"/></clipPath><clipPath id="eb09dac8d6"><path d="M 75.433594 114 L 251.886719 114 L 251.886719 163 L 75.433594 163 Z M 75.433594 114 " clip-rule="nonzero"/></clipPath></defs><g clip-path="url(#704a50d1ef)"><path fill="#ffffff" d="M 0.503906 0 L 326.496094 0 L 326.496094 248.980469 L 0.503906 248.980469 Z M 0.503906 0 " fill-opacity="1" fill-rule="nonzero"/><path fill="#ffffff" d="M 0.503906 0 L 326.496094 0 L 326.496094 241.503906 L 0.503906 241.503906 Z M 0.503906 0 " fill-opacity="1" fill-rule="nonzero"/></g><path fill="#5db3ff" d="M 162.898438 105.5 L 163.34375 94.082031 C 163.34375 93.90625 163.484375 93.761719 163.660156 93.761719 C 163.835938 93.761719 163.976562 93.90625 163.976562 94.082031 L 164.425781 105.5 C 171.902344 105.921875 177.316406 112.511719 177.710938 119.730469 C 186.078125 119.0625 195.6875 118.269531 205.140625 117.476562 C 204.429688 107.898438 200.40625 98.515625 193.074219 91.1875 C 176.828125 74.960938 150.492188 74.960938 134.246094 91.1875 C 126.914062 98.515625 122.890625 107.898438 122.179688 117.476562 C 131.636719 118.269531 141.242188 119.0625 149.613281 119.730469 C 150.003906 112.511719 155.417969 105.921875 162.898438 105.5 " fill-opacity="1" fill-rule="nonzero"/><path fill="#5db3ff" d="M 169.925781 111.171875 C 167.984375 110.054688 165.75 109.613281 163.632812 109.625 C 161.511719 109.640625 159.285156 110.09375 157.351562 111.226562 C 155.429688 112.339844 153.851562 114.175781 153.472656 116.296875 C 155.390625 115.339844 157.011719 114.816406 158.667969 114.542969 C 160.304688 114.269531 161.945312 114.179688 163.652344 114.171875 C 165.359375 114.167969 166.996094 114.246094 168.636719 114.507812 C 170.289062 114.769531 171.917969 115.273438 173.847656 116.210938 C 173.457031 114.085938 171.859375 112.261719 169.925781 111.171875 " fill-opacity="1" fill-rule="nonzero"/><g clip-path="url(#674e56e1ca)"><path fill="#5db3ff" d="M 251.839844 114.304688 L 202.9375 121.222656 C 194.054688 122.472656 185.046875 123.738281 176.953125 124.871094 C 174.804688 130.847656 168.632812 135.65625 163.660156 135.65625 C 158.691406 135.65625 152.519531 130.847656 150.367188 124.871094 C 142.347656 123.75 133.433594 122.496094 124.632812 121.257812 L 75.484375 114.304688 L 122.394531 125.777344 C 123.503906 134.617188 127.453125 143.164062 134.246094 149.949219 C 150.492188 166.175781 176.828125 166.175781 193.074219 149.949219 C 199.867188 143.164062 203.816406 134.617188 204.925781 125.777344 L 251.839844 114.304688 " fill-opacity="1" fill-rule="nonzero"/></g><path fill="#5db3ff" d="M 162.898438 105.5 L 163.34375 94.082031 C 163.34375 93.90625 163.484375 93.761719 163.660156 93.761719 C 163.835938 93.761719 163.976562 93.90625 163.976562 94.082031 L 164.425781 105.5 C 171.902344 105.921875 177.316406 112.511719 177.710938 119.730469 C 186.078125 119.0625 195.6875 118.269531 205.140625 117.476562 C 204.429688 107.898438 200.40625 98.515625 193.074219 91.1875 C 176.828125 74.960938 150.492188 74.960938 134.246094 91.1875 C 126.914062 98.515625 122.890625 107.898438 122.179688 117.476562 C 131.636719 118.269531 141.242188 119.0625 149.613281 119.730469 C 150.003906 112.511719 155.417969 105.921875 162.898438 105.5 " fill-opacity="1" fill-rule="nonzero"/><path fill="#5db3ff" d="M 169.925781 111.171875 C 167.984375 110.054688 165.75 109.613281 163.632812 109.625 C 161.511719 109.640625 159.285156 110.09375 157.351562 111.226562 C 155.429688 112.339844 153.851562 114.175781 153.472656 116.296875 C 155.390625 115.339844 157.011719 114.816406 158.667969 114.542969 C 160.304688 114.269531 161.945312 114.179688 163.652344 114.171875 C 165.359375 114.167969 166.996094 114.246094 168.636719 114.507812 C 170.289062 114.769531 171.917969 115.273438 173.847656 116.210938 C 173.457031 114.085938 171.859375 112.261719 169.925781 111.171875 " fill-opacity="1" fill-rule="nonzero"/><g clip-path="url(#eb09dac8d6)"><path fill="#5db3ff" d="M 251.839844 114.304688 L 202.9375 121.222656 C 194.054688 122.472656 185.046875 123.738281 176.953125 124.871094 C 174.804688 130.847656 168.632812 135.65625 163.660156 135.65625 C 158.691406 135.65625 152.519531 130.847656 150.367188 124.871094 C 142.347656 123.75 133.433594 122.496094 124.632812 121.257812 L 75.484375 114.304688 L 122.394531 125.777344 C 123.503906 134.617188 127.453125 143.164062 134.246094 149.949219 C 150.492188 166.175781 176.828125 166.175781 193.074219 149.949219 C 199.867188 143.164062 203.816406 134.617188 204.925781 125.777344 L 251.839844 114.304688 " fill-opacity="1" fill-rule="nonzero"/></g></svg>