<svg xmlns="http://www.w3.org/2000/svg" xmlns:xlink="http://www.w3.org/1999/xlink" width="500" zoomAndPan="magnify" viewBox="0 0 375 374.999991" height="500" preserveAspectRatio="xMidYMid meet" version="1.0"><defs><g/><clipPath id="dbba884e26"><path d="M 99.160156 144 L 276.160156 144 L 276.160156 193 L 99.160156 193 Z M 99.160156 144 " clip-rule="nonzero"/></clipPath></defs><rect x="-37.5" width="450" fill="#ffffff" y="-37.499999" height="449.999989" fill-opacity="1"/><rect x="-37.5" width="450" fill="#ffffff" y="-37.499999" height="449.999989" fill-opacity="1"/><rect x="-37.5" width="450" fill="#ffffff" y="-37.499999" height="449.999989" fill-opacity="1"/><path fill="#5db3ff" d="M 186.894531 135.828125 L 187.34375 124.371094 C 187.34375 124.195312 187.484375 124.054688 187.660156 124.054688 C 187.835938 124.054688 187.980469 124.195312 187.980469 124.371094 L 188.425781 135.828125 C 195.929688 136.25 201.359375 142.859375 201.753906 150.101562 C 210.148438 149.429688 219.785156 148.636719 229.269531 147.839844 C 228.554688 138.230469 224.523438 128.820312 217.164062 121.472656 C 200.871094 105.195312 174.453125 105.195312 158.15625 121.472656 C 150.800781 128.820312 146.765625 138.230469 146.050781 147.839844 C 155.535156 148.636719 165.175781 149.429688 173.570312 150.101562 C 173.960938 142.859375 179.394531 136.25 186.894531 135.828125 " fill-opacity="1" fill-rule="nonzero"/><path fill="#5db3ff" d="M 193.949219 141.515625 C 191.996094 140.394531 189.757812 139.953125 187.632812 139.964844 C 185.507812 139.976562 183.273438 140.433594 181.332031 141.574219 C 179.40625 142.6875 177.820312 144.527344 177.441406 146.65625 C 179.363281 145.695312 180.992188 145.171875 182.652344 144.898438 C 184.296875 144.625 185.9375 144.53125 187.652344 144.527344 C 189.363281 144.523438 191.007812 144.601562 192.652344 144.859375 C 194.3125 145.125 195.945312 145.628906 197.878906 146.570312 C 197.488281 144.441406 195.886719 142.609375 193.949219 141.515625 " fill-opacity="1" fill-rule="nonzero"/><g clip-path="url(#dbba884e26)"><path fill="#5db3ff" d="M 276.113281 144.660156 L 227.058594 151.597656 C 218.148438 152.851562 209.113281 154.121094 200.992188 155.257812 C 198.839844 161.253906 192.648438 166.078125 187.660156 166.078125 C 182.675781 166.078125 176.484375 161.253906 174.328125 155.257812 C 166.285156 154.132812 157.34375 152.875 148.511719 151.632812 L 99.210938 144.660156 L 146.265625 156.167969 C 147.378906 165.03125 151.34375 173.609375 158.15625 180.414062 C 174.453125 196.691406 200.871094 196.691406 217.164062 180.414062 C 223.980469 173.609375 227.941406 165.03125 229.054688 156.167969 L 276.113281 144.660156 " fill-opacity="1" fill-rule="nonzero"/></g><g fill="#272727" fill-opacity="1"><g transform="translate(120.835451, 241.900975)"><g><path d="M 0.90625 0 L 4.765625 -31.46875 L 11.84375 -31.46875 L 15.6875 0 L 11.359375 0 L 10.625 -7.859375 L 6.015625 -7.859375 L 5.265625 0 Z M 6.40625 -11.609375 L 10.1875 -11.609375 L 9.515625 -18.53125 L 8.84375 -27.6875 L 7.75 -27.6875 L 7.078125 -18.53125 Z M 6.40625 -11.609375 "/></g></g></g><g fill="#272727" fill-opacity="1"><g transform="translate(139.318587, 241.900975)"><g><path d="M 1.8125 0 L 1.8125 -31.46875 L 6.09375 -31.46875 L 6.09375 0 Z M 1.8125 0 "/></g></g></g><g fill="#272727" fill-opacity="1"><g transform="translate(149.228695, 241.900975)"><g><path d="M 1.8125 0 L 1.8125 -31.46875 L 8.015625 -31.46875 C 10.347656 -31.46875 12.046875 -30.96875 13.109375 -29.96875 C 14.171875 -28.96875 14.742188 -27.34375 14.828125 -25.09375 C 14.878906 -23.644531 14.90625 -22.367188 14.90625 -21.265625 C 14.90625 -20.171875 14.878906 -18.984375 14.828125 -17.703125 C 14.722656 -14.765625 13.753906 -12.875 11.921875 -12.03125 L 15.34375 0 L 10.8125 0 L 7.90625 -11.328125 L 6.09375 -11.328125 L 6.09375 0 Z M 6.09375 -15.109375 L 7.984375 -15.109375 C 9.640625 -15.109375 10.503906 -15.894531 10.578125 -17.46875 C 10.710938 -20.082031 10.710938 -22.6875 10.578125 -25.28125 C 10.503906 -26.882812 9.648438 -27.6875 8.015625 -27.6875 L 6.09375 -27.6875 Z M 6.09375 -15.109375 "/></g></g></g><g fill="#272727" fill-opacity="1"><g transform="translate(167.5152, 241.900975)"><g><path d="M 8.578125 0.359375 C 6.191406 0.359375 4.492188 -0.144531 3.484375 -1.15625 C 2.472656 -2.164062 1.941406 -3.835938 1.890625 -6.171875 C 1.859375 -8.140625 1.835938 -10.222656 1.828125 -12.421875 C 1.816406 -14.628906 1.816406 -16.832031 1.828125 -19.03125 C 1.835938 -21.238281 1.859375 -23.320312 1.890625 -25.28125 C 1.910156 -27.332031 2.445312 -28.925781 3.5 -30.0625 C 4.550781 -31.207031 6.242188 -31.78125 8.578125 -31.78125 C 10.878906 -31.78125 12.546875 -31.273438 13.578125 -30.265625 C 14.617188 -29.253906 15.164062 -27.59375 15.21875 -25.28125 C 15.25 -24.570312 15.265625 -23.707031 15.265625 -22.6875 C 15.265625 -21.664062 15.25 -20.800781 15.21875 -20.09375 L 10.96875 -20.09375 C 10.96875 -20.957031 10.972656 -21.941406 10.984375 -23.046875 C 11.003906 -24.148438 11 -25.144531 10.96875 -26.03125 C 10.945312 -27.53125 10.148438 -28.28125 8.578125 -28.28125 C 7.003906 -28.28125 6.191406 -27.53125 6.140625 -26.03125 C 6.054688 -22.707031 6.015625 -19.273438 6.015625 -15.734375 C 6.015625 -12.191406 6.054688 -8.753906 6.140625 -5.421875 C 6.191406 -3.898438 7.003906 -3.140625 8.578125 -3.140625 C 10.253906 -3.140625 11.101562 -3.898438 11.125 -5.421875 C 11.15625 -6.335938 11.171875 -7.363281 11.171875 -8.5 C 11.171875 -9.644531 11.15625 -10.664062 11.125 -11.5625 L 15.375 -11.5625 C 15.40625 -10.695312 15.421875 -9.804688 15.421875 -8.890625 C 15.421875 -7.972656 15.40625 -7.066406 15.375 -6.171875 C 15.320312 -3.835938 14.765625 -2.164062 13.703125 -1.15625 C 12.640625 -0.144531 10.929688 0.359375 8.578125 0.359375 Z M 8.578125 0.359375 "/></g></g></g><g fill="#272727" fill-opacity="1"><g transform="translate(186.11631, 241.900975)"><g><path d="M 1.8125 0 L 1.8125 -31.46875 L 8.015625 -31.46875 C 10.347656 -31.46875 12.046875 -30.96875 13.109375 -29.96875 C 14.171875 -28.96875 14.742188 -27.34375 14.828125 -25.09375 C 14.878906 -23.644531 14.90625 -22.367188 14.90625 -21.265625 C 14.90625 -20.171875 14.878906 -18.984375 14.828125 -17.703125 C 14.722656 -14.765625 13.753906 -12.875 11.921875 -12.03125 L 15.34375 0 L 10.8125 0 L 7.90625 -11.328125 L 6.09375 -11.328125 L 6.09375 0 Z M 6.09375 -15.109375 L 7.984375 -15.109375 C 9.640625 -15.109375 10.503906 -15.894531 10.578125 -17.46875 C 10.710938 -20.082031 10.710938 -22.6875 10.578125 -25.28125 C 10.503906 -26.882812 9.648438 -27.6875 8.015625 -27.6875 L 6.09375 -27.6875 Z M 6.09375 -15.109375 "/></g></g></g><g fill="#272727" fill-opacity="1"><g transform="translate(204.402812, 241.900975)"><g><path d="M 0.90625 0 L 4.765625 -31.46875 L 11.84375 -31.46875 L 15.6875 0 L 11.359375 0 L 10.625 -7.859375 L 6.015625 -7.859375 L 5.265625 0 Z M 6.40625 -11.609375 L 10.1875 -11.609375 L 9.515625 -18.53125 L 8.84375 -27.6875 L 7.75 -27.6875 L 7.078125 -18.53125 Z M 6.40625 -11.609375 "/></g></g></g><g fill="#272727" fill-opacity="1"><g transform="translate(222.885946, 241.900975)"><g><path d="M 1.8125 0 L 1.8125 -31.46875 L 13.0625 -31.46875 L 13.0625 -27.6875 L 6.09375 -27.6875 L 6.09375 -17.8125 L 12.65625 -17.8125 L 12.65625 -14.046875 L 6.09375 -14.046875 L 6.09375 0 Z M 1.8125 0 "/></g></g></g><g fill="#272727" fill-opacity="1"><g transform="translate(239.009539, 241.900975)"><g><path d="M 5.46875 0 L 5.46875 -27.6875 L 0.90625 -27.6875 L 0.90625 -31.46875 L 14.234375 -31.46875 L 14.234375 -27.6875 L 9.71875 -27.6875 L 9.71875 0 Z M 5.46875 0 "/></g></g></g><g fill="#022179" fill-opacity="1"><g transform="translate(140.535181, 267.841112)"><g><path d="M 1 -10.609375 L 2.453125 -10.609375 L 4.328125 -2 L 6.203125 -10.609375 L 7.640625 -10.609375 L 7.84375 0 L 6.65625 0 L 6.53125 -7.703125 L 4.734375 0 L 3.90625 0 L 2.125 -7.703125 L 2 0 L 0.796875 0 Z M 1 -10.609375 "/></g></g></g><g fill="#022179" fill-opacity="1"><g transform="translate(152.691432, 267.841112)"><g><path d="M 3.53125 0.125 C 2.5 0.125 1.753906 -0.171875 1.296875 -0.765625 C 0.847656 -1.359375 0.625 -2.210938 0.625 -3.328125 L 0.625 -7.34375 C 0.625 -8.445312 0.847656 -9.28125 1.296875 -9.84375 C 1.753906 -10.414062 2.5 -10.703125 3.53125 -10.703125 C 4.5625 -10.703125 5.300781 -10.414062 5.75 -9.84375 C 6.195312 -9.269531 6.421875 -8.4375 6.421875 -7.34375 L 6.421875 -3.3125 C 6.421875 -2.207031 6.191406 -1.359375 5.734375 -0.765625 C 5.285156 -0.171875 4.550781 0.125 3.53125 0.125 Z M 3.53125 -1.046875 C 4.082031 -1.046875 4.453125 -1.207031 4.640625 -1.53125 C 4.835938 -1.851562 4.9375 -2.34375 4.9375 -3 L 4.9375 -7.640625 C 4.9375 -8.285156 4.835938 -8.765625 4.640625 -9.078125 C 4.453125 -9.390625 4.082031 -9.546875 3.53125 -9.546875 C 2.976562 -9.546875 2.601562 -9.390625 2.40625 -9.078125 C 2.21875 -8.765625 2.125 -8.285156 2.125 -7.640625 L 2.125 -3 C 2.125 -2.34375 2.21875 -1.851562 2.40625 -1.53125 C 2.601562 -1.207031 2.976562 -1.046875 3.53125 -1.046875 Z M 3.53125 -1.046875 "/></g></g></g><g fill="#022179" fill-opacity="1"><g transform="translate(163.263104, 267.841112)"><g><path d="M 0.828125 -10.609375 L 1.828125 -10.609375 L 4.84375 -3.5625 L 4.84375 -10.609375 L 6.078125 -10.609375 L 6.078125 0 L 5.125 0 L 2.078125 -7.234375 L 2.078125 0 L 0.828125 0 Z M 0.828125 -10.609375 "/></g></g></g><g fill="#022179" fill-opacity="1"><g transform="translate(173.690724, 267.841112)"><g><path d="M 0.90625 -10.609375 L 2.359375 -10.609375 L 2.359375 0 L 0.90625 0 Z M 0.90625 -10.609375 "/></g></g></g><g fill="#022179" fill-opacity="1"><g transform="translate(180.451543, 267.841112)"><g><path d="M 1.984375 -9.5 L 0.203125 -9.5 L 0.203125 -10.609375 L 5.21875 -10.609375 L 5.21875 -9.5 L 3.46875 -9.5 L 3.46875 0 L 1.984375 0 Z M 1.984375 -9.5 "/></g></g></g><g fill="#022179" fill-opacity="1"><g transform="translate(189.373151, 267.841112)"><g><path d="M 3.53125 0.125 C 2.5 0.125 1.753906 -0.171875 1.296875 -0.765625 C 0.847656 -1.359375 0.625 -2.210938 0.625 -3.328125 L 0.625 -7.34375 C 0.625 -8.445312 0.847656 -9.28125 1.296875 -9.84375 C 1.753906 -10.414062 2.5 -10.703125 3.53125 -10.703125 C 4.5625 -10.703125 5.300781 -10.414062 5.75 -9.84375 C 6.195312 -9.269531 6.421875 -8.4375 6.421875 -7.34375 L 6.421875 -3.3125 C 6.421875 -2.207031 6.191406 -1.359375 5.734375 -0.765625 C 5.285156 -0.171875 4.550781 0.125 3.53125 0.125 Z M 3.53125 -1.046875 C 4.082031 -1.046875 4.453125 -1.207031 4.640625 -1.53125 C 4.835938 -1.851562 4.9375 -2.34375 4.9375 -3 L 4.9375 -7.640625 C 4.9375 -8.285156 4.835938 -8.765625 4.640625 -9.078125 C 4.453125 -9.390625 4.082031 -9.546875 3.53125 -9.546875 C 2.976562 -9.546875 2.601562 -9.390625 2.40625 -9.078125 C 2.21875 -8.765625 2.125 -8.285156 2.125 -7.640625 L 2.125 -3 C 2.125 -2.34375 2.21875 -1.851562 2.40625 -1.53125 C 2.601562 -1.207031 2.976562 -1.046875 3.53125 -1.046875 Z M 3.53125 -1.046875 "/></g></g></g><g fill="#022179" fill-opacity="1"><g transform="translate(199.944821, 267.841112)"><g><path d="M 0.828125 -10.609375 L 2.953125 -10.609375 C 4.023438 -10.609375 4.8125 -10.382812 5.3125 -9.9375 C 5.820312 -9.5 6.078125 -8.785156 6.078125 -7.796875 C 6.078125 -6.429688 5.640625 -5.601562 4.765625 -5.3125 L 6.265625 0 L 4.84375 0 L 3.453125 -4.96875 L 2.296875 -4.96875 L 2.296875 0 L 0.828125 0 Z M 2.875 -6.03125 C 3.507812 -6.03125 3.960938 -6.15625 4.234375 -6.40625 C 4.503906 -6.664062 4.640625 -7.128906 4.640625 -7.796875 C 4.640625 -8.234375 4.59375 -8.570312 4.5 -8.8125 C 4.40625 -9.0625 4.234375 -9.242188 3.984375 -9.359375 C 3.742188 -9.484375 3.398438 -9.546875 2.953125 -9.546875 L 2.296875 -9.546875 L 2.296875 -6.03125 Z M 2.875 -6.03125 "/></g></g></g><g fill="#022179" fill-opacity="1"><g transform="translate(210.254576, 267.841112)"><g><path d="M 0.90625 -10.609375 L 2.359375 -10.609375 L 2.359375 0 L 0.90625 0 Z M 0.90625 -10.609375 "/></g></g></g><g fill="#022179" fill-opacity="1"><g transform="translate(217.015395, 267.841112)"><g><path d="M 0.828125 -10.609375 L 1.828125 -10.609375 L 4.84375 -3.5625 L 4.84375 -10.609375 L 6.078125 -10.609375 L 6.078125 0 L 5.125 0 L 2.078125 -7.234375 L 2.078125 0 L 0.828125 0 Z M 0.828125 -10.609375 "/></g></g></g><g fill="#022179" fill-opacity="1"><g transform="translate(227.443012, 267.841112)"><g><path d="M 3.359375 0.125 C 2.390625 0.125 1.691406 -0.175781 1.265625 -0.78125 C 0.835938 -1.382812 0.625 -2.285156 0.625 -3.484375 L 0.625 -7.03125 C 0.625 -7.851562 0.707031 -8.523438 0.875 -9.046875 C 1.050781 -9.578125 1.347656 -9.984375 1.765625 -10.265625 C 2.179688 -10.554688 2.75 -10.703125 3.46875 -10.703125 C 4.445312 -10.703125 5.148438 -10.453125 5.578125 -9.953125 C 6.015625 -9.453125 6.234375 -8.671875 6.234375 -7.609375 L 6.234375 -7.21875 L 4.84375 -7.21875 L 4.84375 -7.546875 C 4.84375 -8.046875 4.8125 -8.429688 4.75 -8.703125 C 4.6875 -8.984375 4.554688 -9.191406 4.359375 -9.328125 C 4.171875 -9.472656 3.882812 -9.546875 3.5 -9.546875 C 3.082031 -9.546875 2.773438 -9.453125 2.578125 -9.265625 C 2.378906 -9.078125 2.25 -8.828125 2.1875 -8.515625 C 2.132812 -8.203125 2.109375 -7.78125 2.109375 -7.25 L 2.109375 -3.328125 C 2.109375 -2.515625 2.207031 -1.929688 2.40625 -1.578125 C 2.601562 -1.222656 2.976562 -1.046875 3.53125 -1.046875 C 4.082031 -1.046875 4.457031 -1.238281 4.65625 -1.625 C 4.863281 -2.007812 4.96875 -2.625 4.96875 -3.46875 L 4.96875 -4.203125 L 3.625 -4.203125 L 3.625 -5.25 L 6.3125 -5.25 L 6.3125 0 L 5.375 0 L 5.234375 -1.21875 C 4.898438 -0.320312 4.273438 0.125 3.359375 0.125 Z M 3.359375 0.125 "/></g></g></g></svg>